<?xml version="1.0" standalone="no"?>
<!DOCTYPE svg PUBLIC "-//W3C//DTD SVG 20010904//EN"
 "http://www.w3.org/TR/2001/REC-SVG-20010904/DTD/svg10.dtd">
<svg version="1.0" xmlns="http://www.w3.org/2000/svg"
 width="300.000000pt" height="300.000000pt" viewBox="0 0 300.000000 300.000000"
 preserveAspectRatio="xMidYMid meet">
<metadata>
Created by potrace 1.10, written by Peter Selinger 2001-2011
</metadata>
<g transform="translate(0.000000,300.000000) scale(0.100000,-0.100000)"
fill="#000000" stroke="none">
<path d="M1053 2715 c-63 -44 -54 -271 15 -428 29 -65 83 -117 121 -117 87 0
124 86 95 219 -39 179 -69 257 -122 314 -29 31 -75 36 -109 12z m88 -37 c36
-39 76 -138 99 -247 26 -122 23 -186 -10 -213 -32 -26 -49 -22 -89 20 -56 58
-96 196 -94 320 2 101 17 142 53 142 10 0 29 -10 41 -22z"/>
<path d="M1985 2581 c-111 -67 -212 -267 -173 -341 18 -33 75 -70 108 -70 75
0 169 154 185 301 6 60 5 68 -17 91 -31 35 -67 42 -103 19z m78 -42 c30 -42
-11 -194 -73 -276 -29 -39 -42 -49 -71 -51 -43 -4 -83 33 -82 75 1 58 44 143
105 209 65 69 96 80 121 43z"/>
<path d="M330 2251 c-34 -34 -36 -51 -15 -112 21 -59 51 -89 175 -171 161
-108 222 -122 285 -67 29 26 35 38 35 71 0 37 -6 46 -81 116 -44 42 -95 87
-112 100 -58 43 -141 79 -200 86 -54 7 -59 6 -87 -23z m216 -59 c95 -57 234
-190 234 -224 0 -38 -34 -63 -85 -61 -51 2 -60 6 -185 88 -130 86 -170 132
-170 199 0 37 20 48 81 44 44 -3 71 -13 125 -46z"/>
<path d="M1335 2165 c-135 -29 -258 -99 -357 -203 -56 -58 -59 -59 -100 -55
-62 7 -92 -20 -118 -105 -30 -104 -46 -221 -41 -313 0 -14 17 -44 37 -68 29
-33 37 -52 41 -94 11 -121 114 -296 231 -393 235 -194 562 -229 832 -88 317
166 458 632 288 957 -39 75 -178 217 -261 266 -74 43 -167 81 -242 97 -76 17
-232 16 -310 -1z m343 -41 c163 -47 335 -170 418 -300 79 -124 110 -288 83
-440 -29 -167 -94 -299 -199 -405 -125 -125 -274 -183 -475 -183 -173 0 -311
48 -441 153 -109 87 -207 237 -234 355 -12 56 -7 70 22 55 35 -19 254 -6 303
17 75 36 102 73 139 195 32 104 33 129 7 122 -18 -4 -37 -55 -34 -90 0 -7 -3
-13 -8 -13 -5 0 -9 -11 -9 -24 0 -14 -5 -28 -10 -31 -6 -4 -8 -11 -5 -16 4 -5
1 -9 -4 -9 -6 0 -11 -7 -11 -15 0 -18 -41 -58 -80 -79 -46 -25 -168 -34 -257
-18 -46 8 -53 7 -54 -7 -1 -11 -3 -10 -6 4 -3 11 -17 33 -31 50 -24 29 -24 33
-19 135 3 58 12 123 20 145 l16 40 0 -45 c1 -40 12 -74 22 -70 12 4 39 -14 39
-26 0 -31 78 -6 113 36 11 13 23 36 29 51 12 34 2 100 -14 96 -10 -2 -41 43
-35 50 6 5 75 5 117 -1 70 -10 72 -11 121 -33 27 -12 57 -19 73 -16 20 4 26 1
26 -12 0 -15 6 -17 38 -11 21 3 52 2 68 -3 21 -6 33 -4 43 6 9 10 24 13 42 9
15 -3 29 -1 31 5 5 15 88 25 88 10 0 -6 -9 -11 -20 -11 -12 0 -24 -10 -29 -24
-5 -13 -17 -26 -25 -29 -12 -5 -16 -20 -16 -61 0 -45 3 -55 19 -59 24 -6 36
33 25 87 -3 20 -2 36 2 37 115 12 119 9 108 -77 l-6 -52 -43 1 c-49 2 -58 -3
-49 -27 12 -30 69 -20 109 19 30 31 35 42 35 83 0 39 -4 49 -22 57 -13 6 -23
16 -23 23 0 7 -7 17 -15 22 -11 7 -3 10 30 11 25 1 52 2 60 3 8 1 20 -2 26 -7
7 -4 26 -9 43 -10 17 -1 31 -5 31 -8 0 -3 11 -11 24 -17 48 -22 56 -48 45
-147 -21 -183 -38 -219 -108 -230 -20 -4 -43 -10 -51 -14 -16 -8 -104 -6 -186
4 -45 5 -53 10 -67 38 -35 74 -44 104 -42 142 2 22 -1 45 -5 50 -5 6 -8 12 -8
15 -1 16 -22 58 -36 69 -9 7 -14 17 -11 21 3 5 1 11 -5 15 -5 3 -10 2 -10 -4
0 -6 -7 -8 -15 -5 -8 4 -23 3 -32 -1 -14 -5 -8 -11 27 -24 41 -15 45 -20 47
-51 6 -80 27 -207 39 -235 20 -44 73 -75 136 -82 56 -5 258 21 289 38 25 13
44 53 58 119 27 136 31 164 31 211 0 44 -4 55 -33 84 -39 39 -107 62 -222 75
-146 18 -182 14 -217 -21 -28 -28 -33 -29 -60 -18 -17 7 -54 10 -93 7 -54 -5
-67 -3 -81 13 -25 27 -98 48 -202 55 -60 5 -91 11 -89 18 7 21 136 123 196
155 66 35 139 59 216 72 71 11 225 2 293 -17z m-715 -323 c11 -1 9 -79 -3
-102 -12 -21 -60 -49 -85 -49 -16 0 -20 52 -9 122 6 36 7 36 48 33 22 -2 44
-4 49 -4z"/>
<path d="M1719 1291 c-30 -24 -20 -36 16 -19 24 11 29 10 42 -7 37 -51 28
-104 -27 -156 -43 -41 -141 -79 -202 -79 -59 0 -148 38 -167 71 -19 34 -31 37
-31 9 0 -34 57 -88 118 -110 107 -41 237 -7 316 81 54 60 63 99 36 153 -10 22
-18 41 -16 43 8 8 34 -10 46 -33 23 -42 51 -25 34 21 -17 43 -123 60 -165 26z"/>
<path d="M2410 2086 c-94 -26 -181 -85 -197 -134 -21 -59 35 -142 95 -142 42
0 185 54 235 89 83 57 109 130 62 176 -21 22 -33 25 -87 24 -35 0 -83 -6 -108
-13z m170 -36 c25 -25 25 -27 0 -67 -25 -41 -77 -75 -163 -108 -89 -33 -129
-33 -156 1 -12 15 -21 36 -21 48 0 84 279 187 340 126z"/>
<path d="M450 1474 c-45 -8 -115 -26 -143 -36 -72 -27 -74 -153 -4 -185 36
-16 121 -25 270 -27 l129 -1 29 33 c60 67 29 154 -69 197 -35 15 -168 27 -212
19z m198 -49 c56 -17 82 -44 82 -88 0 -73 -32 -85 -210 -76 -180 8 -207 14
-226 50 -16 31 -11 71 12 90 42 35 255 50 342 24z"/>
<path d="M2363 1379 c-66 -19 -99 -100 -67 -166 31 -62 65 -75 207 -76 179 -1
247 34 247 127 0 52 -39 96 -98 114 -46 14 -242 14 -289 1z m287 -37 c88 -34
93 -107 10 -150 -41 -22 -55 -23 -169 -20 -120 4 -124 5 -147 32 -49 56 -22
132 52 146 74 14 206 10 254 -8z"/>
<path d="M842 919 c-51 -25 -138 -119 -177 -190 -50 -94 -33 -181 43 -210 35
-13 96 6 139 44 51 45 160 193 168 228 8 36 -19 95 -55 120 -41 28 -72 30
-118 8z m109 -48 c42 -43 38 -76 -17 -152 -113 -156 -185 -200 -241 -147 -47
44 -18 133 78 242 80 90 130 106 180 57z"/>
<path d="M2033 885 c-57 -46 -53 -119 15 -219 79 -116 221 -236 280 -236 31 0
92 60 92 91 0 71 -73 190 -193 315 -69 71 -74 74 -117 74 -33 0 -54 -7 -77
-25z m147 -51 c83 -78 159 -178 185 -245 30 -76 30 -70 5 -97 -30 -32 -60 -27
-128 18 -63 43 -113 96 -175 190 -55 82 -50 150 13 173 34 12 53 5 100 -39z"/>
<path d="M1463 733 c-12 -2 -36 -20 -53 -39 l-30 -35 3 -127 c3 -119 5 -131
32 -180 38 -70 70 -95 110 -88 16 4 36 13 44 20 29 29 51 120 57 232 6 123 -5
170 -48 197 -26 17 -82 27 -115 20z m98 -52 c31 -32 33 -39 30 -171 -2 -81
-22 -170 -44 -198 -20 -26 -60 -9 -91 38 -28 42 -31 53 -37 165 -7 131 -1 158
40 180 40 22 70 18 102 -14z"/>
</g>
</svg>
